<?xml version="1.0" encoding="utf-8"?>
<svg width="512px" height="512px" viewBox="0 0 512 512" version="1.1" xmlns:xlink="http://www.w3.org/1999/xlink" xmlns="http://www.w3.org/2000/svg">
  <desc>Created with Lunacy</desc>
  <defs>
    <rect width="512" height="512" id="artboard_1" />
    <clipPath id="clip_1">
      <use xlink:href="#artboard_1" clip-rule="evenodd" />
    </clipPath>
  </defs>
  <g id="icon" clip-path="url(#clip_1)">
    <g id="Icon" transform="translate(5.422363E-05 28.99997)">
      <path d="M56.8889 0C41.2444 0 28.4444 5.12 16.7822 16.2133C5.68889 27.3067 0 40.96 0 56.8889L0 398.222C0 414.151 5.68889 427.804 16.7822 438.898C28.4444 449.991 41.2444 455.111 56.8889 455.111L455.111 455.111C469.333 455.111 483.556 449.707 494.649 438.329C506.311 426.667 512 413.298 512 398.222L512 56.8889C512 41.8133 506.311 28.4444 494.649 16.7822C483.556 5.40445 469.333 0 455.111 0L56.8889 0" id="Shape" fill="#FFFFFF" stroke="none" />
      <path d="M56.8889 0C41.2444 0 28.4444 5.12 16.7822 16.2133C5.68889 27.3067 0 40.96 0 56.8889L0 398.222C0 414.151 5.68889 427.804 16.7822 438.898C28.4444 449.991 41.2444 455.111 56.8889 455.111L455.111 455.111C469.333 455.111 483.556 449.707 494.649 438.329C506.311 426.667 512 413.298 512 398.222L512 56.8889C512 41.8133 506.311 28.4444 494.649 16.7822C483.556 5.40445 469.333 0 455.111 0L56.8889 0ZM469.333 42.6667L42.6667 42.6667L42.6667 412.444L469.333 412.444L469.333 42.6667ZM292.693 150.187C298.667 144.782 305.209 142.222 312.889 142.222L398.222 142.222C406.756 142.222 413.298 144.782 418.702 150.187C424.107 155.591 426.667 162.133 426.667 170.667L426.667 199.111L384 199.111L384 184.889L327.111 184.889L327.111 270.222L384 270.222L384 256L426.667 256L426.667 284.444C426.667 292.978 424.107 299.52 418.702 304.924C413.298 310.329 406.756 312.889 398.222 312.889L312.889 312.889C305.209 312.889 298.667 310.329 292.693 304.924C287.004 299.52 284.444 292.978 284.444 284.444L284.444 170.667C284.444 162.133 287.004 155.591 292.693 150.187ZM113.778 142.222C105.244 142.222 98.7022 144.782 93.2978 150.187C87.8934 155.591 85.3334 162.133 85.3334 170.667L85.3334 284.444C85.3334 292.978 87.8934 299.52 93.2978 304.924C98.7022 310.329 105.244 312.889 113.778 312.889L199.111 312.889C206.791 312.889 213.333 310.329 219.307 304.924C224.996 299.52 227.556 292.978 227.556 284.444L227.556 256L184.889 256L184.889 270.222L128 270.222L128 184.889L184.889 184.889L184.889 199.111L227.556 199.111L227.556 170.667C227.556 162.133 224.996 155.591 219.307 150.187C213.333 144.782 206.791 142.222 199.111 142.222L113.778 142.222Z" id="Shape" fill="#4CAF50" fill-rule="evenodd" stroke="none" />
    </g>
  </g>
</svg>